<?xml version="1.0" encoding="UTF-8"?>
<svg width="672px" height="333px" viewBox="0 0 672 333" version="1.1" xmlns="http://www.w3.org/2000/svg" xmlns:xlink="http://www.w3.org/1999/xlink">
    <!-- Generator: Sketch 47 (45396) - http://www.bohemiancoding.com/sketch -->
    <title>Artboard</title>
    <desc>Created with Sketch.</desc>
    <defs>
        <path d="M47.7388478,150.239002 L12.9592155,150.616365 C-24.6590912,48.2160844 31.6262498,0.155996973 31.6262498,0.155996973 C31.6262498,0.155996973 83.565218,53.8884378 47.7388478,150.239002 Z" id="path-1"></path>
        <path d="M47.7388478,150.239002 L12.9592155,150.616365 C-24.6590912,48.2160844 31.6262498,0.155996973 31.6262498,0.155996973 C31.6262498,0.155996973 83.565218,53.8884378 47.7388478,150.239002 Z" id="path-3"></path>
        <ellipse id="path-5" cx="9.59646722" cy="10.2818346" rx="9.59646722" ry="10.2818346"></ellipse>
        <ellipse id="path-7" cx="5.33137068" cy="5.71213035" rx="5.33137068" ry="5.71213035"></ellipse>
    </defs>
    <g id="Page-1" stroke="none" stroke-width="1" fill="none" fill-rule="evenodd">
        <g id="Artboard">
            <g id="Rocket-space" transform="translate(44.000000, 30.000000)">
                <g id="space" transform="translate(0.000000, 66.096491)">
                    <path d="M52.772483,108.674892 C58.9331754,109.71457 63.6661699,115.898321 63.6661699,123.371313 C63.6661699,125.012921 63.4377751,126.592316 63.0160234,128.068635 C62.9224124,128.07197 62.8280279,128.076018 62.7328727,128.080788 C62.7328727,128.080788 73.0717571,129.721528 74.3484379,140.248041 C74.3484379,140.248041 74.8709725,135.391181 72.2421098,131.80857 L100.538659,114.675112 L82.9465405,118.354169 L126.314085,90.3149169 L97.3924253,126.832566 L123.01065,103.969259 L96.1040763,147.371494 C99.1363357,147.485337 101.95168,148.451469 104.319715,150.038426 C100.561563,147.810974 95.5920705,146.989652 89.0574824,149.153758 C89.0574824,149.153758 108.063064,147.507072 115.337666,168.546472 C115.337666,168.546472 114.636712,164.120823 112.31711,159.366389 C113.726677,158.98564 115.202061,158.783449 116.721311,158.783449 C126.683837,158.783449 134.76006,167.477882 134.76006,178.203008 C134.76006,182.506135 133.459974,186.482368 131.259592,189.701314 C134.692655,192.529635 136.882265,196.818878 136.882265,201.62071 C136.882265,203.630207 136.498799,205.549933 135.801209,207.310387 C135.976228,207.418218 136.066046,207.444378 136.066046,207.384579 C210.058452,174.286824 197.582403,73.5482582 197.582403,73.5482582 C165.740206,87.3880133 129.085901,40.0809852 144.236152,11.4422715 C145.705058,11.0421101 43.2704685,-38.1742887 0.18859745,76.5979858 C0.20933859,76.7268901 0.285031134,76.9052234 0.413439561,77.1309104 C1.44750031,76.7453511 2.55796012,76.5359071 3.71385991,76.5359071 C9.28115357,76.5359071 13.7943368,81.3945605 13.7943368,87.3880133 C13.7943368,87.7370572 13.7790299,88.0822523 13.7490992,88.4228631 C17.4059244,81.970008 23.9003066,77.678234 31.3025335,77.678234 C42.7301363,77.678234 51.9940387,87.9069782 51.9940387,100.524773 C51.9940387,102.063284 51.8563089,103.566276 51.5937206,105.019536 C49.4588864,109.89219 45.3731925,114.994572 37.671174,118.389433 C37.671174,118.389433 42.1515211,117.355064 46.6163941,114.490842 C43.3604687,117.304273 39.3018014,118.900584 39.3018014,118.900584 C42.997785,117.628762 45.4927255,115.86791 47.1738215,114.123413 C49.2306354,112.730283 51.2442566,110.94019 52.772483,108.674892 Z" id="Combined-Shape" fill="#362D2C"></path>
                    <path d="M35.8446023,138.764297 C35.8446023,138.764297 35.8446023,111.735704 12.9216598,115.499213 C12.9216598,115.499213 31.9508501,116.845928 35.8446023,138.764297 Z" id="Path-16" fill="#362D2C"></path>
                    <path d="M68.7401129,159.77501 C68.7401129,159.77501 68.7401129,132.746418 45.8171705,136.509926 C45.8171705,136.509926 64.8463608,137.856642 68.7401129,159.77501 Z" id="Path-16" fill="#362D2C" transform="translate(57.278642, 147.962731) rotate(1.000000) translate(-57.278642, -147.962731) "></path>
                    <path d="M75.1067299,197.4718 C75.1067299,197.4718 75.1067299,170.443208 52.1837875,174.206716 C52.1837875,174.206716 71.2129778,175.553432 75.1067299,197.4718 Z" id="Path-16-Copy" fill="#362D2C" transform="translate(63.645259, 185.659521) rotate(1.000000) translate(-63.645259, -185.659521) "></path>
                    <path d="M108.325414,201.327698 C108.325414,201.327698 108.325414,174.299105 85.402472,178.062614 C85.402472,178.062614 104.431662,179.409329 108.325414,201.327698 Z" id="Path-16-Copy-2" fill="#362D2C" transform="translate(96.863943, 189.515419) rotate(-9.000000) translate(-96.863943, -189.515419) "></path>
                    <g id="decoration" transform="translate(57.299553, 14.790823)" fill="#FFF5C5">
                        <polygon id="Star-4-Copy-2" transform="translate(25.723935, 6.048237) rotate(-45.000000) translate(-25.723935, -6.048237) " points="25.7239347 7.04302837 22.5406262 9.47521819 24.7998773 6.04823727 22.5406262 2.62125636 25.7239347 5.05344618 28.9072432 2.62125636 26.647992 6.04823727 28.9072432 9.47521819"></polygon>
                        <g id="star" transform="translate(0.000000, 26.332948)">
                            <polygon id="Star-4-Copy-5" transform="translate(4.774963, 5.140471) rotate(-45.000000) translate(-4.774963, -5.140471) " points="4.77496274 5.96946395 2.12220566 7.9962888 4.00491494 5.14047137 2.12220566 2.28465394 4.77496274 4.31147879 7.42771982 2.28465394 5.54501055 5.14047137 7.42771982 7.9962888"></polygon>
                            <ellipse id="Oval-8" cx="4.77496274" cy="5.14047137" rx="1.06110283" ry="1.14232697"></ellipse>
                        </g>
                        <polygon id="Star-4-Copy-3" transform="translate(18.038748, 76.595334) rotate(-45.000000) translate(-18.038748, -76.595334) " points="18.0387481 77.5901256 14.8554396 80.0223154 17.1146908 76.5953345 14.8554396 73.1683536 18.0387481 75.6005434 21.2220566 73.1683536 18.9628055 76.5953345 21.2220566 80.0223154"></polygon>
                        <polygon id="Star-4-Copy-6" transform="translate(100.129866, 150.120023) rotate(-45.000000) translate(-100.129866, -150.120023) " points="100.129866 151.61221 95.3549035 155.260495 98.7437802 150.120023 95.3549035 144.979552 100.129866 148.627837 104.904829 144.979552 101.515952 150.120023 104.904829 155.260495"></polygon>
                        <polygon id="Star-4-Copy-7" transform="translate(111.415797, 124.573067) rotate(-45.000000) translate(-111.415797, -124.573067) " points="111.415797 125.567858 108.232489 128.000048 110.49174 124.573067 108.232489 121.146086 111.415797 123.578276 114.599106 121.146086 112.339855 124.573067 114.599106 128.000048"></polygon>
                        <polygon id="Star-4-Copy-4" transform="translate(39.829061, 14.379106) rotate(-45.000000) translate(-39.829061, -14.379106) " points="39.8290613 15.2080985 37.1763042 17.2349233 39.0590135 14.3791059 37.1763042 11.5232885 39.8290613 13.5501133 42.4818184 11.5232885 40.5991091 14.3791059 42.4818184 17.2349233"></polygon>
                    </g>
                </g>
                <g id="rocket" transform="translate(172.229508, 107.557018) rotate(45.000000) translate(-172.229508, -107.557018) translate(112.590164, 20.429825)">
                    <g id="body" transform="translate(29.558942, 0.000000)">
                        <mask id="mask-2" fill="white">
                            <use xlink:href="#path-1"></use>
                        </mask>
                        <use id="Mask-Copy" stroke="#362D2C" stroke-width="13.86" fill="#F5F5FA" xlink:href="#path-1"></use>
                        <mask id="mask-4" fill="white">
                            <use xlink:href="#path-3"></use>
                        </mask>
                        <use id="Mask" fill="#5F80E1" xlink:href="#path-3"></use>
                        <path d="M21.5906968,150.716112 C37.2259683,143.023488 44.4470921,98.7309313 44.4470921,98.7309313 C44.4470921,98.7309313 50.5556471,99.9212846 49.1966416,98.4652207 C60.5215662,50.9126677 29.3906189,-4.17897049 29.3906189,-4.17897049 C29.3906189,-4.17897049 69.965954,39.1939069 60.3387094,113.204922 C61.5143846,114.464562 53.8887183,108.846866 53.8887183,108.846866 L48.4666895,152.15336 C48.4666895,152.15336 24.7659789,163.769648 21.5906968,150.716112 Z" id="Path-2" fill="#5F80E1" mask="url(#mask-4)"></path>
                    </g>
                    <path d="M84.8901055,112.339176 C115.817922,123.430869 107.59107,165.739534 105.72041,174.148479 C98.0198614,154.09742 77.8936307,143.789568 77.8936307,143.789568 L84.8901055,112.339176 Z" id="Path-18" stroke="#362D2C" stroke-width="8.316" fill="#5F80E1"></path>
                    <path d="M18.7254903,112.274331 C49.6533066,123.366024 41.4264545,165.674688 39.5557951,174.083633 C31.8552462,154.032575 11.7290155,143.724722 11.7290155,143.724722 L18.7254903,112.274331 Z" id="Path-18-Copy" stroke="#362D2C" stroke-width="8.316" fill="#5F80E1" transform="translate(26.837368, 143.178982) scale(-1, 1) translate(-26.837368, -143.178982) "></path>
                    <g id="glass-2" transform="translate(52.247433, 50.583323)">
                        <mask id="mask-6" fill="white">
                            <use xlink:href="#path-5"></use>
                        </mask>
                        <use id="Mask" stroke="#362D2C" stroke-width="1.386" fill="#F4AA34" xlink:href="#path-5"></use>
                        <rect id="Rectangle" fill="#362D2C" mask="url(#mask-6)" transform="translate(10.647828, 9.935686) rotate(93.000000) translate(-10.647828, -9.935686) " x="-0.0149129013" y="8.22204643" width="21.3254827" height="3.42727821"></rect>
                        <rect id="Rectangle-Copy" fill="#362D2C" mask="url(#mask-6)" transform="translate(17.515907, 11.594595) rotate(93.000000) translate(-17.515907, -11.594595) " x="7.91944012" y="8.10533551" width="19.1929344" height="6.97851819"></rect>
                    </g>
                    <g id="glass-1" transform="translate(55.446255, 74.574270)">
                        <mask id="mask-8" fill="white">
                            <use xlink:href="#path-7"></use>
                        </mask>
                        <use id="Mask" stroke="#362D2C" stroke-width="1.386" fill="#F4AA34" xlink:href="#path-7"></use>
                        <rect id="Rectangle-Copy" fill="#362D2C" mask="url(#mask-8)" transform="translate(9.711037, 5.813574) rotate(93.000000) translate(-9.711037, -5.813574) " x="2.31476822" y="4.26264041" width="14.7925368" height="3.10186805"></rect>
                        <rect id="Rectangle-Copy-2" fill="#362D2C" mask="url(#mask-8)" transform="translate(6.756287, 6.197891) rotate(93.000000) translate(-6.756287, -6.197891) " x="-0.639981458" y="5.40931732" width="14.7925368" height="1.57714736"></rect>
                    </g>
                    <path d="M60.5648886,115.701609 C60.5648886,115.701609 51.7090844,132.996654 60.1803929,157.971373 C60.1803929,157.971373 68.459109,140.766437 60.5648886,115.701609 Z" id="Path-12" stroke="#343434" stroke-width="4.158" fill="#343434"></path>
                    <path d="M11.7357657,162.146631 C12.8864856,161.396627 18.3928569,148.864522 20.1721893,140.479582 L22.7647899,145.009936 C22.7647899,145.009936 33.4345994,130.602318 27.9984907,120.60771 C27.9984907,120.60771 34.0163663,117.349562 34.0163663,117.349562 C34.0163663,117.349562 44.1442693,140.817094 11.7357657,162.146631 Z" id="Combined-Shape-Copy" fill="#5F80E1" transform="translate(23.658737, 139.737518) scale(-1, 1) rotate(-49.000000) translate(-23.658737, -139.737518) "></path>
                    <path d="M85.6443111,162.606772 C86.5119861,161.726542 93.1211436,148.211903 94.0142638,139.686905 L96.2936208,142.490832 C96.2936208,142.490832 106.224508,129.538505 99.7734579,120.166876 C99.7734579,120.166876 105.178116,116.853976 105.178116,116.853976 C105.178116,116.853976 115.933619,138.732914 85.6443111,162.606772 Z" id="Combined-Shape" fill="#5F80E1" transform="translate(96.338593, 139.730374) rotate(-46.000000) translate(-96.338593, -139.730374) "></path>
                    <g id="least" transform="translate(31.293829, 4.621479)" fill="#362D2C">
                        <ellipse id="Oval-7" cx="3.36007992" cy="99.0846557" rx="1.5994112" ry="1.7136391"></ellipse>
                        <ellipse id="Oval-7-Copy-3" cx="27.884385" cy="1.97843985" rx="1.5994112" ry="1.7136391"></ellipse>
                        <ellipse id="Oval-7-Copy" cx="2.29380578" cy="136.784716" rx="1.5994112" ry="1.7136391"></ellipse>
                        <ellipse id="Oval-7-Copy-2" cx="70.5353505" cy="148.208977" rx="1.5994112" ry="1.7136391"></ellipse>
                        <ellipse id="Oval-7-Copy-4" cx="57.7400608" cy="116.221047" rx="1.5994112" ry="1.7136391"></ellipse>
                        <ellipse id="Oval-7-Copy-5" cx="22.0198773" cy="143.068059" rx="1.06627414" ry="1.14242607"></ellipse>
                        <ellipse id="Oval-7-Copy-6" cx="35.8814411" cy="143.068059" rx="1.06627414" ry="1.14242607"></ellipse>
                    </g>
                </g>
            </g>
            <text id="JAKZ-AIZZAT" font-family="HiraKakuStd-W8, Hiragino Kaku Gothic Std" font-size="72" font-weight="600" line-spacing="77" fill="#362D2C">
                <tspan x="316" y="141">JAKZ </tspan>
                <tspan x="316" y="227.6">AIZZAT</tspan>
            </text>
        </g>
    </g>
</svg>