
<svg width="278px" height="209px" viewBox="0 0 278 209" version="1.1" xmlns="http://www.w3.org/2000/svg" xmlns:xlink="http://www.w3.org/1999/xlink">
    <!-- Generator: Sketch 47 (45396) - http://www.bohemiancoding.com/sketch -->
    <desc>Created with Sketch.</desc>
    <defs>
        <polygon id="path-1" points="0.0266028708 74.64 0.0266028708 0.395294118 277.949455 0.395294118 277.949455 74.64"></polygon>
    </defs>
    <g id="Page-1" stroke="none" stroke-width="1" fill="none" fill-rule="evenodd">
        <g id="Desktop" transform="translate(-200.000000, -154.000000)">
            <g id="src_file" transform="translate(200.000000, 154.000000)">
                <path d="M29.7942491,32.2686225 L56.6787998,32.2686225 C60.0949014,32.2686225 62.8641962,34.9926334 62.8641962,38.3528745 C62.8641962,41.7126777 60.0949014,44.4371265 56.6787998,44.4371265 L49.4873583,44.4371265 C44.0783082,44.4371265 39.6931092,48.7501803 39.6931092,54.0712188 C39.6931092,59.3922574 44.0783082,63.7053111 49.4873583,63.7053111 L102.668858,63.7053111 C106.88668,63.7053111 110.306788,67.0690552 110.306788,71.2183443 C110.306788,75.3676334 106.88668,78.7309396 102.668858,78.7309396 L87.107656,78.7309396 C81.6981607,78.7309396 77.3129617,83.0444313 77.3129617,88.3654698 C77.3129617,93.6865083 81.6981607,98 87.107656,98 L217.205306,98 C222.614801,98 227,93.6865083 227,88.3654698 C227,83.0444313 222.614801,78.7309396 217.205306,78.7309396 L202.007348,78.7309396 C197.788636,78.7309396 194.368974,75.3676334 194.368974,71.2183443 C194.368974,67.0690552 197.788636,63.7053111 202.007348,63.7053111 L206.044438,63.7053111 C211.453488,63.7053111 215.839132,59.3922574 215.839132,54.0712188 C215.839132,48.7501803 211.453488,44.4371265 206.044438,44.4371265 L137.127681,44.4371265 C133.71158,44.4371265 130.942285,41.7126777 130.942285,38.3528745 C130.942285,34.9926334 133.71158,32.2686225 137.127681,32.2686225 L171.183642,32.2686225 C176.593137,32.2686225 180.977891,27.9551308 180.977891,22.6340923 C180.977891,17.3130538 176.593137,13 171.183642,13 L29.7942491,13 C24.3847538,13 20,17.3130538 20,22.6340923 C20,27.9551308 24.3847538,32.2686225 29.7942491,32.2686225" id="Fill-1" fill="#E6E7EA"></path>
                <path d="M207.763385,33 L257.236615,33 C262.62862,33 267,28.5227815 267,22.9997728 C267,17.476764 262.62862,13 257.236615,13 L207.763385,13 C202.37138,13 198,17.476764 198,22.9997728 C198,28.5227815 202.37138,33 207.763385,33" id="Fill-2" fill="#E6E7EA"></path>
                <path d="M230.8476,44 C225.409086,44 221,48.4768657 221,54 C221,59.5231343 225.409086,64 230.8476,64 L235.151953,64 C240.590914,64 245,59.5231343 245,54 C245,48.4768657 240.590914,44 235.151953,44 L230.8476,44" id="Fill-3" fill="#E6E7EA"></path>
                <g id="Group-7" transform="translate(0.000000, 107.000000)">
                    <mask id="mask-2" fill="white">
                        <use xlink:href="#path-1"></use>
                    </mask>
                    <g id="Clip-5"></g>
                    <path d="M268.193738,55.2260294 L248.321394,55.2260294 C244.528711,54.8845588 241.555841,51.7160294 241.555841,47.8530882 C241.555841,43.7625 244.888293,40.4466176 248.999324,40.4466176 L251.570935,40.4466176 C256.958459,40.4466176 261.326651,36.1001471 261.326651,30.7394118 C261.326651,25.3782353 256.958459,21.0322059 251.570935,21.0322059 L206.782785,21.0322059 C201.056073,21.0322059 196.413429,16.4126471 196.413429,10.7139706 C196.413429,5.01529412 201.056073,0.395294118 206.782785,0.395294118 L128.391219,0.395294118 C134.11793,0.395294118 138.760574,5.01529412 138.760574,10.7139706 C138.760574,16.4126471 134.11793,21.0322059 128.391219,21.0322059 L16.7070463,21.0322059 C11.3190781,21.0322059 6.95133014,25.3782353 6.95133014,30.7394118 C6.95133014,36.1001471 11.3190781,40.4466176 16.7070463,40.4466176 L146.386287,40.4466176 C150.497317,40.4466176 153.830214,43.7625 153.830214,47.8530882 C153.830214,51.7160294 150.857343,54.8845588 147.064217,55.2260294 L101.195104,55.2260294 C95.8075789,55.2260294 91.4398309,59.5716176 91.4398309,64.9332353 C91.4398309,70.2939706 95.8075789,74.64 101.195104,74.64 L268.193738,74.64 C273.581707,74.64 277.949455,70.2939706 277.949455,64.9332353 C277.949455,59.5716176 273.581707,55.2260294 268.193738,55.2260294" id="Fill-4" fill="#E6E7EA" mask="url(#mask-2)"></path>
                    <path d="M40.3596587,55.2260294 L9.75571611,55.2260294 C4.36774801,55.2260294 0,59.5716176 0,64.9332353 C0,70.2939706 4.36774801,74.64 9.75571611,74.64 L40.3596587,74.64 C45.7476268,74.64 50.1149314,70.2939706 50.1149314,64.9332353 C50.1149314,59.5716176 45.7476268,55.2260294 40.3596587,55.2260294" id="Fill-6" fill="#E6E7EA" mask="url(#mask-2)"></path>
                </g>
                <path d="M124.34176,84 L181.265604,84 C183.025481,84 184.708669,82.8033271 185.355235,81.0929735 L197.893863,47.8969055 C198.257474,46.9354118 197.64793,46 196.658467,46 L139.734623,46 C137.974305,46 136.291117,47.1966729 135.644991,48.9074686 L123.105923,82.1026524 C122.742753,83.0645882 123.352297,84 124.34176,84" id="Fill-8" fill="#5F80E1"></path>
                <path d="M122.341808,81 L179.26592,81 C181.025806,81 182.709002,79.8037553 183.35513,78.0929397 L195.893817,44.8969276 C196.25743,43.9354227 195.648323,43 194.658856,43 L137.734303,43 C135.974418,43 134.290781,44.1966868 133.644652,45.9070603 L121.105965,79.1030724 C120.742793,80.0650194 121.3519,81 122.341808,81" id="Fill-9" fill="#FFD6C6"></path>
                <path d="M171.908923,46.9121246 L171,50 L180.822247,50 L182,46 L172.935405,46 C172.479431,46 172.070567,46.3631813 171.908923,46.9121246" id="Fill-10" fill="#E8ABA5"></path>
                <path d="M159.246118,49.1447712 L156.049233,57.9442151 C155.863874,58.4540322 156.224813,59 156.74844,59 L183.829065,59 C184.535829,59 185.168805,58.5444089 185.419062,57.8552288 L189,48 L160.836115,48 C160.129796,48 159.496819,48.4555911 159.246118,49.1447712" id="Fill-11" fill="#FFFFFF"></path>
                <polyline id="Fill-12" fill="#E8ABA5" points="160.863508 61 160 64 183.136492 64 184 61 160.863508 61"></polyline>
                <polyline id="Fill-13" fill="#E8ABA5" points="170.872251 65 170 68 182.127299 68 183 65 170.872251 65"></polyline>
                <polyline id="Fill-14" fill="#FFFFFF" points="134.738378 53 134 56 144.261622 56 145 53 134.738378 53"></polyline>
                <polyline id="Fill-15" fill="#FFFFFF" points="131.846594 57 131 60 134.153406 60 135 57 131.846594 57"></polyline>
                <path d="M179.230726,46.731613 L178,50 L187.86073,50 L188.945867,47.1199272 C189.149782,46.5788337 188.752351,46 188.176776,46 L180.284213,46 C179.816248,46 179.396662,46.291463 179.230726,46.731613" id="Fill-16" fill="#FFFFFF"></path>
                <path d="M139.226439,51.4071012 C137.714941,52.3955844 135.940374,52.1197948 135.262835,50.7906023 C134.585714,49.4614099 135.261998,47.5820598 136.773496,46.5931027 C138.284994,45.6041456 140.059562,45.8804091 140.737101,47.2096016 C141.414222,48.538794 140.738356,50.4181441 139.226439,51.4071012" id="Fill-17" fill="#FFFFFF"></path>
                <polygon id="Fill-18" fill="#CB6B93" points="16 105 248 105 248 94 16 94"></polygon>
                <polygon id="Fill-19" fill="#FFBDB3" points="163 105 247 105 247 94 163 94"></polygon>
                <polygon id="Fill-20" fill="#4E576F" points="27 111 238 111 238 104 27 104"></polygon>
                <polygon id="Fill-21" fill="#4E576F" points="220 196 229 196 229 112 220 112"></polygon>
                <polygon id="Fill-22" fill="#4E576F" points="173 196 182 196 182 112 173 112"></polygon>
                <polygon id="Fill-23" fill="#4E576F" points="83 196 92 196 92 112 83 112"></polygon>
                <polygon id="Fill-24" fill="#4E576F" points="36 196 45 196 45 112 36 112"></polygon>
                <path d="M117.845675,82 L89.1538764,82 C85.7551728,82 83,84.6862802 83,88 C83,91.3137198 85.7551728,94 89.1538764,94 L117.845675,94 C121.244379,94 124,91.3137198 124,88 C124,84.6862802 121.244379,82 117.845675,82" id="Fill-25" fill="#DB5855"></path>
                <path d="M172,109 L111.010782,109 C109.348398,109 108,110.343569 108,112 L172,112 L172,109" id="Fill-26" fill="#7E8596"></path>
                <path d="M267,196 L6,196 L6,199.297296 C6,204.655924 10.6047184,209 16.2844183,209 L256.715138,209 C262.395282,209 267,204.655924 267,199.297296 L267,196" id="Fill-27" fill="#B0B4BE"></path>
                <path d="M110.507107,94 L159.493344,94 C161.430105,94 163,92.4331854 163,90.5002252 C163,88.5668146 161.430105,87 159.493344,87 L110.507107,87 C108.570346,87 107,88.5668146 107,90.5002252 C107,92.4331854 108.570346,94 110.507107,94" id="Fill-28" fill="#FFD6C6"></path>
                <path d="M96.6359122,84.7637268 L87.848899,56.4536736 C86.5684908,52.3284548 82.287872,50.0549272 78.287736,51.3755167 C74.2880342,52.6961062 72.0836827,57.1110576 73.3640909,61.2362764 L82.1511041,89.5458818 C83.4315123,93.6715484 87.7121311,95.945076 91.7118329,94.6244865 C95.7119689,93.303897 97.9163204,88.8889456 96.6359122,84.7637268" id="Fill-29" fill="#DB5855"></path>
                <path d="M86,57 L91.000814,57 C95.9709455,57 100,53.0646674 100,48.2101486 L100,36 L86,36 L86,57" id="Fill-30" fill="#FF8F6E"></path>
                <path d="M75.0494055,106.900396 C75.0494055,106.900396 52.5120103,107 39,107 C39,70.5623095 62.7006926,53.4592471 76.12434,48.1072082 C86.1491091,44.1106649 94.9279615,45.7764815 99.766713,53.2972251 C104.982332,61.4045238 100.253151,71.2940647 93.8874886,75.3255799 C79.2934748,84.5674755 75.0494055,95.4853693 75.0494055,106.900396" id="Fill-31" fill="#3E659A"></path>
                <path d="M86.3238239,53.1815289 C90.8873189,51.3855435 95.1938795,50.7370056 99,51.2447687 C93.8953313,45.5044329 85.7674311,44.5039579 76.6122409,48.1065532 C63.0121753,53.4586517 39,70.5619043 39,107 C41.969517,107 45.3696453,106.99513 48.8736217,106.987605 C50.9819161,74.0312505 73.3732561,58.2777537 86.3238239,53.1815289" id="Fill-32" fill="#4C75B3"></path>
                <path d="M75,108 L39,108 L39,125.103693 C39,131.121659 43.8520339,136 49.8375473,136 L75,136 L75,108" id="Fill-33" fill="#20374F"></path>
                <path d="M108.278003,136 L56.7215561,136 C51.3526459,136 47,131.522788 47,126.000227 C47,120.477212 51.3526459,116 56.7215561,116 L108.278003,116 C113.647354,116 118,120.477212 118,126.000227 C118,131.522788 113.647354,136 108.278003,136" id="Fill-34" fill="#20374F"></path>
                <path d="M52.0260057,125.103693 L52.0260057,108 L39,108 L39,125.103693 C39,131.121659 43.913122,136 49.9739943,136 L63,136 C56.9391277,136 52.0260057,131.121659 52.0260057,125.103693" id="Fill-35" fill="#3D4C6A"></path>
                <path d="M118.479977,123.559519 L137.614329,183.511124 C138.960001,187.727328 136.671568,192.24897 132.50332,193.60968 C128.335511,194.971278 123.865738,192.656517 122.520066,188.440313 L103.385714,128.488708 C102.040042,124.272504 104.328036,119.751306 108.496284,118.390152 C112.664532,117.028998 117.134305,119.343315 118.479977,123.559519" id="Fill-36" fill="#20374F"></path>
                <path d="M86.520066,123.559519 L67.3857143,183.511124 C66.0400422,187.727328 68.3280359,192.24897 72.4962839,193.60968 C76.6645318,194.971278 81.1343051,192.656517 82.4799773,188.440313 L101.614329,128.488708 C102.960001,124.272504 100.671568,119.751306 96.5033205,118.390152 C92.3355114,117.028998 87.8657381,119.343315 86.520066,123.559519" id="Fill-37" fill="#20374F"></path>
                <path d="M96.2911301,55.315261 L116.164559,80.9337749 C119.090228,84.7047778 118.449506,90.1686735 114.733318,93.1374022 C111.017573,96.1065793 105.63374,95.4558806 102.708513,91.6848777 L82.8350847,66.0663638 C79.9098574,62.2953609 80.5505794,56.8314651 84.2667669,53.8627365 C87.9825125,50.8935594 93.3659028,51.5438096 96.2911301,55.315261" id="Fill-38" fill="#FF8F6E"></path>
                <path d="M97.0697698,55.4004413 L106.844464,67.6977556 C107.092442,68.0100756 107.038109,68.4631467 106.722797,68.708771 L93.7234615,78.8456032 C93.4081488,79.0916875 92.9512008,79.037871 92.7027585,78.7250909 L82.928529,66.4277767 C79.8543462,62.5598839 80.5276944,56.955602 84.4331139,53.9105965 C88.3380691,50.8651311 93.995587,51.5320885 97.0697698,55.4004413" id="Fill-39" fill="#5D97C8"></path>
                <path d="M119.74814,178 L127.431513,178 C129.402183,178 131,179.75946 131,181.930066 L131,189 L118,189 L118,179.9255 C118,178.862289 118.782863,178 119.74814,178" id="Fill-40" fill="#FBB74F"></path>
                <path d="M118,183 L149.733697,183 C152.642297,183 155,185.45237 155,188.477201 L155,195 L118,195 L118,183" id="Fill-41" fill="#5F80E1"></path>
                <polygon id="Fill-42" fill="#FBB74F" points="118 195 155 195 155 192 118 192"></polygon>
                <path d="M141.845228,186 L140.155248,186 C139.517098,186 139,185.589831 139,185.084019 L139,182.91636 C139,182.410169 139.517098,182 140.155248,182 L141.845228,182 C142.482902,182 143,182.410169 143,182.91636 L143,185.084019 C143,185.589831 142.482902,186 141.845228,186" id="Fill-43" fill="#FBB74F"></path>
                <path d="M147.845228,186 L146.155248,186 C145.517098,186 145,185.589831 145,185.084019 L145,182.91636 C145,182.410169 145.517098,182 146.155248,182 L147.845228,182 C148.483379,182 149,182.410169 149,182.91636 L149,185.084019 C149,185.589831 148.483379,186 147.845228,186" id="Fill-44" fill="#FBB74F"></path>
                <path d="M65.747775,178 L73.4318197,178 C75.4025531,178 77,179.75946 77,181.930066 L77,189 L64,189 L64,179.9255 C64,178.862289 64.7824661,178 65.747775,178" id="Fill-45" fill="#20374F"></path>
                <path d="M64,183 L95.7336353,183 C98.6422697,183 101,185.45237 101,188.477201 L101,195 L64,195 L64,183" id="Fill-46" fill="#20374F"></path>
                <polygon id="Fill-47" fill="#20374F" points="64 195 101 195 101 192 64 192"></polygon>
                <path d="M86.8447516,186 L85.1547718,186 C84.5170976,186 84,185.589831 84,185.084019 L84,182.91636 C84,182.410169 84.5170976,182 85.1547718,182 L86.8447516,182 C87.4829024,182 88,182.410169 88,182.91636 L88,185.084019 C88,185.589831 87.4829024,186 86.8447516,186" id="Fill-48" fill="#20374F"></path>
                <path d="M93.8447516,186 L92.1547718,186 C91.5170976,186 91,185.589831 91,185.084019 L91,182.91636 C91,182.410169 91.5170976,182 92.1547718,182 L93.8447516,182 C94.4829024,182 95,182.410169 95,182.91636 L95,185.084019 C95,185.589831 94.4829024,186 93.8447516,186" id="Fill-49" fill="#20374F"></path>
                <path d="M151.453258,94 L179.546742,94 C181.453765,94 183,92.4331854 183,90.5002252 C183,88.5668146 181.453765,87 179.546742,87 L151.453258,87 C149.54579,87 148,88.5668146 148,90.5002252 C148,92.4331854 149.54579,94 151.453258,94" id="Fill-50" fill="#5F80E1"></path>
                <path d="M101.999779,48 L101.999779,48 C93.7153877,48 87,41.3951262 87,33.2480418 L87,18.7523934 C87,10.6048738 93.7153877,4 101.999779,4 C110.28417,4 117,10.6048738 117,18.7523934 L117,33.2480418 C117,41.3951262 110.28417,48 101.999779,48" id="Fill-51" fill="#FF8F6E"></path>
                <path d="M101.999779,4 L101.999779,4 C93.7153877,4 87,10.6048738 87,18.7523934 L87,33.2480418 C87,33.3385553 87.0048672,33.4281984 87.0066371,33.5187119 L88.1597174,33.5187119 C88.1557352,33.3859878 88.1495406,33.2536989 88.1495406,33.1196693 L88.1495406,20.0430809 C88.1495406,12.6927763 94.2083008,6.73455178 101.681642,6.73455178 C109.154983,6.73455178 115.213301,12.6927763 115.213301,20.0430809 L115.213301,33.1196693 C115.213301,40.4699739 109.154983,46.4281984 101.681642,46.4281984 C101.09404,46.4281984 100.516172,46.3872933 99.9480391,46.3159269 C99.9254731,46.8346388 99.8648545,47.3429069 99.7560065,47.835074 C100.488297,47.9429939 101.236958,48 101.999779,48 C110.28417,48 117,41.3951262 117,33.2480418 L117,18.7523934 C117,10.6048738 110.28417,4 101.999779,4" id="Fill-52" fill="#FFB99C"></path>
                <path d="M88.2652201,42 L85.3922443,42 C84.0710315,42 83,40.9711856 83,39.7015101 L83,12.2148346 C83,11.5440213 83.5661036,11 84.2646024,11 L95.0251363,11 C97.7725649,11 100,13.1405483 100,15.7808064 L100,30.723404 C100,36.9515702 94.7461933,42 88.2652201,42" id="Fill-53" fill="#20374F"></path>
                <path d="M83,15.0333594 L83,15.0333594 C83,8.93986388 87.9223302,4 93.9937526,4 L124,4 L124,8.96708691 C124,15.0605824 119.078114,20 113.006247,20 L87.9494566,20 C85.2159157,20 83,17.7766373 83,15.0333594" id="Fill-54" fill="#20374F"></path>
                <path d="M103,12.5 C103,18.851407 97.851407,24 91.5,24 C85.148593,24 80,18.851407 80,12.5 C80,6.14859299 85.148593,1 91.5,1 C97.851407,1 103,6.14859299 103,12.5" id="Fill-55" fill="#20374F"></path>
                <path d="M103.305051,27 L100.694949,27 C99.7589387,27 99,26.2134976 99,25.2425069 L99,17.7574931 C99,16.7873851 99.7589387,16 100.694949,16 L103.305051,16 C104.241061,16 105,16.7873851 105,17.7574931 L105,25.2425069 C105,26.2134976 104.241061,27 103.305051,27" id="Fill-56" fill="#20374F"></path>
                <path d="M107,25 C107,27.7614841 104.761385,30 102.000221,30 C99.2386148,30 97,27.7614841 97,25 C97,22.2385159 99.2386148,20 102.000221,20 C104.761385,20 107,22.2385159 107,25" id="Fill-57" fill="#FF8F6E"></path>
                <path d="M107.484665,30 L106.515335,30 C105.678568,30 105,29.1466974 105,28.0939991 L105,15.9060009 C105,14.8537631 105.678568,14 106.515335,14 L107.484665,14 C108.321432,14 109,14.8537631 109,15.9060009 L109,28.0939991 C109,29.1466974 108.321432,30 107.484665,30" id="Fill-58" fill="#20374F"></path>
                <path d="M120.491833,10 L102.508612,10 C100.018429,10 98,7.85980823 98,5.21987625 L98,4.7805961 C98,2.14019177 100.018429,0 102.508612,0 L124.017291,0 C124.56032,0 125,0.466676114 125,1.04246375 L125,5.21987625 C125,7.85980823 122.981571,10 120.491833,10" id="Fill-59" fill="#20374F"></path>
                <path d="M144.207352,78.207924 L115.461162,93.1836801 C111.98342,94.9954224 107.671269,93.6904428 105.829876,90.2687007 C103.988039,86.8465209 105.31482,82.6038058 108.792562,80.7920635 L137.538752,65.8163074 C141.016493,64.0045651 145.328644,65.3095447 147.170037,68.7317244 C149.011875,72.1534666 147.685538,76.3961817 144.207352,78.207924" id="Fill-60" fill="#FF8F6E"></path>
                <path d="M151,68.0002226 C151,73.5226074 146.522707,78 141,78 C135.477293,78 131,73.5226074 131,68.0002226 C131,62.4769474 135.477293,58 141,58 C146.522707,58 151,62.4769474 151,68.0002226" id="Fill-61" fill="#FF8F6E"></path>
                <path d="M83,141.500453 L83,141.500453 C83,137.91011 80.1437536,135 76.6203094,135 L26.3801348,135 C22.8566906,135 20,137.91011 20,141.500453 C20,145.08989 22.8566906,148 26.3801348,148 L76.6203094,148 C80.1437536,148 83,145.08989 83,141.500453" id="Fill-62" fill="#CB6B93"></path>
                <path d="M42.3851452,122 L23.6153035,122 C17.7528129,122 13,117.345596 13,111.603948 L13,84.3960521 C13,78.6544043 17.7528129,74 23.6153035,74 L42.3851452,74 C48.2476358,74 53,78.6544043 53,84.3960521 L53,111.603948 C53,117.345596 48.2476358,122 42.3851452,122" id="Fill-63" fill="#FFBDB3"></path>
                <path d="M33.3850261,122 L14.6149739,122 C8.75241749,122 4,117.345596 4,111.603948 L4,84.3960521 C4,78.6544043 8.75241749,74 14.6149739,74 L33.3850261,74 C39.2475825,74 44,78.6544043 44,84.3960521 L44,111.603948 C44,117.345596 39.2475825,122 33.3850261,122" id="Fill-64" fill="#CB6B93"></path>
                <path d="M114,142.169823 L114,140.830177 C114,137.6105 111.422197,135 108.241849,135 L68.758151,135 C65.5782499,135 63,137.6105 63,140.830177 L63,142.169823 C63,145.389953 65.5782499,148 68.758151,148 L108.241849,148 C111.422197,148 114,145.389953 114,142.169823" id="Fill-65" fill="#FFBDB3"></path>
                <path d="M44.3181545,146 L37.8635844,146 C31.3114945,146 26,140.732515 26,134.234714 L26,122 L35.3632456,122 L35.3632456,131.557694 C35.3632456,134.405616 37.6912548,136.713894 40.5629707,136.713894 L44.3181545,136.713894 C46.9039902,136.713894 49,138.792978 49,141.356947 C49,143.921357 46.9039902,146 44.3181545,146" id="Fill-66" fill="#4E576F"></path>
                <path d="M31.3028409,134.234714 L31.3028409,122 L26,122 L26,134.234714 C26,140.732515 31.2369835,146 37.6971591,146 L43,146 C36.5398244,146 31.3028409,140.732515 31.3028409,134.234714" id="Fill-67" fill="#687084"></path>
                <path d="M85,190.500222 C85,192.985306 82.9853064,195 80.4997781,195 C78.0146936,195 76,192.985306 76,190.500222 C76,188.014694 78.0146936,186 80.4997781,186 C82.9853064,186 85,188.014694 85,190.500222" id="Fill-68" fill="#4E576F"></path>
                <path d="M69,190.500222 C69,192.985306 66.9853064,195 64.5002219,195 C62.0146936,195 60,192.985306 60,190.500222 C60,188.014694 62.0146936,186 64.5002219,186 C66.9853064,186 69,188.014694 69,190.500222" id="Fill-69" fill="#4E576F"></path>
                <path d="M50,190.500222 C50,192.985306 47.9853064,195 45.5002219,195 C43.0146936,195 41,192.985306 41,190.500222 C41,188.014694 43.0146936,186 45.5002219,186 C47.9853064,186 50,188.014694 50,190.500222" id="Fill-70" fill="#4E576F"></path>
                <polygon id="Fill-71" fill="#4E576F" points="60 184 67 184 67 156 60 156"></polygon>
                <polygon id="Fill-72" fill="#687084" points="60 184 63 184 63 156 60 156"></polygon>
                <path d="M70,152 L57,152 L57,162.022097 C57,163.666501 58.3331128,165 59.978002,165 L67.021998,165 C68.6668872,165 70,163.666501 70,162.022097 L70,152" id="Fill-73" fill="#4E576F"></path>
                <path d="M60.972394,162.022097 L60.972394,152 L57,152 L57,162.022097 C57,163.666501 58.3553182,165 60.027606,165 L64,165 C62.3277122,165 60.972394,163.666501 60.972394,162.022097" id="Fill-74" fill="#687084"></path>
                <path d="M85,190 L85,186.863665 C85,184.729999 83.1408574,183 80.8473764,183 L45.1526236,183 C42.8591426,183 41,184.729999 41,186.863665 L41,190 L85,190" id="Fill-75" fill="#4E576F"></path>
                <path d="M57,183 L45.2919016,183 C42.9214979,183 41,184.729999 41,186.863665 L41,190 L52.7080984,190 L52.7080984,186.863665 C52.7080984,184.729999 54.6300474,183 57,183" id="Fill-76" fill="#687084"></path>
                <path d="M80.6818691,153 L45.3181309,153 C42.933288,153 41,151.482747 41,149.611111 L41,149 L85,149 L85,149.611111 C85,151.482747 83.066712,153 80.6818691,153" id="Fill-77" fill="#4E576F"></path>
                <path d="M50.7583218,149.611111 L50.7583218,149 L41,149 L41,149.611111 C41,151.482402 42.8990591,153 45.2416782,153 L55,153 C52.6573808,153 50.7583218,151.482402 50.7583218,149.611111" id="Fill-78" fill="#687084"></path>
                <polygon id="Fill-79" fill="#3D4C6A" points="54 113 72 113 72 109 54 109"></polygon>
                <polygon id="Fill-80" fill="#20374F" points="60 116 64 116 64 107 60 107"></polygon>
                <polyline id="Fill-81" fill="#FBB74F" points="220.680765 94 211.31967 94 210 87 222 87 220.680765 94"></polyline>
                <polyline id="Fill-82" fill="#FB9B3B" points="217.677308 87 217 94 220.000823 94 221 87 217.677308 87"></polyline>
                <polygon id="Fill-83" fill="#FBB74F" points="208 86 225 86 225 82 208 82"></polygon>
                <polygon id="Fill-84" fill="#FB9B3B" points="213 86 225 86 225 82 213 82"></polygon>
                <path d="M220,82 L211,82 L211,72.0540541 C211,69.8151434 213.014912,68 215.500229,68 C217.985546,68 220,69.8151434 220,72.0540541 L220,82" id="Fill-85" fill="#93CCAE"></path>
                <path d="M220,82 L211,82 L211,72.0540541 C211,69.8151434 213.014912,68 215.500229,68 C217.985546,68 220,69.8151434 220,72.0540541 L220,82" id="Fill-86" fill="#93CCAE"></path>
                <path d="M220,82 L211,82 L211,72.0540541 C211,69.8151434 213.014912,68 215.500229,68 C217.985546,68 220,69.8151434 220,72.0540541 L220,82" id="Fill-87" fill="#64B6A9"></path>
                <path d="M216.295395,68 C215.845718,68 215.412323,68.0577677 215,68.1592738 C216.968234,68.6445224 218.40969,70.2025995 218.40969,72.0540541 L218.40969,82 L221,82 L221,72.0540541 C221,69.8151434 218.893846,68 216.295395,68" id="Fill-88" fill="#65A79B"></path>
                <path d="M213,78 L210.379925,77.0293722 C209.873358,76.8423767 209.873358,76.1576233 210.379925,75.9706278 L213,75 L213,78" id="Fill-89" fill="#64B6A9"></path>
                <path d="M213,74 L210.379925,73.0293722 C209.873358,72.8423767 209.873358,72.1576233 210.379925,71.9699552 L213,71 L213,74" id="Fill-90" fill="#64B6A9"></path>
                <path d="M213,80 L210.379925,79.0300448 C209.873358,78.8423767 209.873358,78.1576233 210.379925,77.9706278 L213,77 L213,80" id="Fill-91" fill="#64B6A9"></path>
                <path d="M213,83 L210.379925,82.0295898 C209.873358,81.8419637 209.873358,81.1573638 210.379925,80.9697377 L213,80 L213,83" id="Fill-92" fill="#64B6A9"></path>
                <path d="M220,80 L222.620714,80.9697377 C223.126429,81.1573638 223.126429,81.8419637 222.620714,82.0295898 L220,83 L220,80" id="Fill-93" fill="#65A79B"></path>
                <path d="M224,74 L226.620075,74.9699552 C227.126642,75.1576233 227.126642,75.8423767 226.620075,76.0293722 L224,77 L224,74" id="Fill-94" fill="#65A79B"></path>
                <path d="M225.975328,76 L226.955855,78.2696875 C227.144513,78.7075455 226.693967,79.1484956 226.258315,78.9518306 L224,77.9320174 L225.975328,76" id="Fill-95" fill="#65A79B"></path>
                <path d="M222.681983,71.0021993 C222.005427,71.0454755 221.498553,71.7945547 221.498553,72.6297401 L221.498553,73.8370113 C221.498553,74.4326163 221.107091,74.9153463 220.624096,74.9153463 L220,74.9153463 L220,78 L221.498553,78 C222.768813,78 223.815123,76.8315435 223.976483,75.3195546 L224,75.3195546 L224,72.5422955 C224,71.6629416 223.403401,70.955354 222.681983,71.0021993" id="Fill-96" fill="#65A79B"></path>
                <polygon id="Fill-97" fill="#FBB74F" points="177 94 201 94 201 91 177 91"></polygon>
                <polygon id="Fill-98" fill="#FB9B3B" points="177 94 201 94 201 93 177 93"></polygon>
                <path d="M177,91 C176.707899,91.0944009 174.296686,91.9152017 173.163002,92.300783 C172.944202,92.3756833 172.946406,92.6247599 173.165207,92.699217 L177,94 L177,91" id="Fill-99" fill="#FFFFFF"></path>
                <polygon id="Fill-100" fill="#3F4E66" points="168 188 175 188 175 175 168 175"></polygon>
                <path d="M199,196 L166.170174,196 C164.419319,196 163,194.531462 163,192.719339 L163,192.280661 C163,190.468986 164.419319,189 166.170174,189 L199,189 L199,196" id="Fill-101" fill="#3F4E66"></path>
                <path d="M164.485086,192.719339 L164.485086,192.280661 C164.485086,190.468986 165.610848,189 167,189 L165.515258,189 C164.126107,189 163,190.468986 163,192.280661 L163,192.719339 C163,194.531462 164.126107,196 165.515258,196 L167,196 C165.610848,196 164.485086,194.531462 164.485086,192.719339" id="Fill-102" fill="#4E576F"></path>
                <polyline id="Fill-103" fill="#4E576F" points="202 195 174.464321 195 168 164.102208 170.954137 162 196.356149 167.879846 202 195"></polyline>
                <polyline id="Fill-104" fill="#3F4E66" points="202 195 177.642056 195 171 162 195.357513 162 202 195"></polyline>
                <polyline id="Fill-105" fill="#4E576F" points="207 195 184.323526 195 179 169.720534 181.432867 168 202.351921 172.810707 207 195"></polyline>
                <polyline id="Fill-106" fill="#3F4E66" points="208 195 186.784926 195 181 168 202.214614 168 208 195"></polyline>
                <path d="M198.105183,181 L189.636038,181 C188.915957,181 188.295476,180.54592 188.151011,179.913509 L187.018621,174.964115 C186.904664,174.466157 187.328189,174 187.894384,174 L196.363977,174 C197.083161,174 197.704091,174.45408 197.848556,175.086491 L198.981394,180.035885 C199.095351,180.533843 198.671378,181 198.105183,181" id="Fill-107" fill="#4E576F"></path>
                <polygon id="Fill-108" fill="#7E8596" points="180 112 220 112 220 109 180 109"></polygon>
                <path d="M6,196 L6,199.550934 C6,200.76027 6.20510159,201.920026 6.57793267,203 L206.933264,203 C210.28385,203 213,200.248229 213,196.854153 L213,196 L6,196" id="Fill-109" fill="#7E8596"></path>
                <path d="M130.908875,98 L81.090679,98 C79.3837397,98 78,96.2094029 78,94 L134,94 C134,96.2094029 132.61626,98 130.908875,98" id="Fill-110" fill="#E181A3"></path>
                <path d="M227.271238,160 C227.160371,158.245174 225.866772,157.091443 224.320395,156.263158 C222.773575,155.435762 221.012115,155.130324 219.299881,154.751082 C215.770754,153.969035 212.269122,152.796632 209.302314,150.72703 C206.335505,148.657874 203.933677,145.603489 203.208161,142.053378 C202.483533,138.503712 203.662717,134.48544 206.559014,132.318027 C207.929333,131.292785 209.897006,130.739261 211.328967,131.676028 C212.384867,132.366933 212.85051,133.65182 213.328126,134.822 C214.228812,137.027204 215.403118,139.119479 216.816011,141.03525 C218.371257,143.14442 220.38372,145.135328 222.949188,145.64706 C226.254364,146.307287 229.748013,144.12209 231.068221,141.013465 C232.387985,137.904394 231.725886,134.17022 229.839368,131.37059 C227.952407,128.57096 224.981164,126.638294 221.813021,125.485453 C218.917167,124.431757 215.795145,123.961373 213.075792,122.509318 C210.35644,121.057262 208.024236,118.191831 208.499634,115.140114 C208.76749,113.418633 209.872171,111.951906 211.047808,110.669242 C212.308591,109.293213 213.73124,108.009215 215.449682,107.286744 C217.168125,106.563829 219.231587,106.47402 220.839606,107.418345 C221.979321,108.087464 222.789096,109.197624 223.472482,110.330903 C224.660092,112.301804 225.569647,114.442096 226.164339,116.666862 C226.562131,118.15493 226.825995,119.698128 227.509825,121.078158 C228.194098,122.457744 229.408759,123.690168 230.932076,123.896906 C232.974695,124.174335 234.902011,122.423066 235.362776,120.408594 C235.82354,118.394123 235.109998,116.272949 234.01729,114.520345 C232.925026,112.767298 231.467786,111.276562 230.226516,109.626661 C227.840209,106.454458 226.246381,102.577123 226.304476,98.6046448 C226.363014,94.6321664 228.233566,90.603224 231.560915,88.4451478 C232.891322,87.5821841 234.471403,87.0228805 236.049709,87.1664855 C238.268385,87.3683327 240.176189,88.9342051 241.380651,90.8126294 C243.442339,94.028403 243.752324,98.1000267 243.220605,101.88533 C242.688885,105.670633 241.390851,109.298993 240.448923,113.002934 C240.23118,113.859674 240.086165,114.911147 240.742056,115.502017 C241.409033,116.102668 242.456064,115.825684 243.286238,115.485567 C245.963461,114.387411 248.709865,112.757961 249.736496,110.046806 C250.232738,108.737021 250.27132,107.305862 250.351588,105.907158 C250.64073,100.848528 251.658491,95.585828 254.845704,91.6529187 C258.03203,87.7200094 263.896908,85.6143957 268.344904,88.0205572 C270.709481,89.2996642 272.372047,91.6609214 273.207986,94.2209137 C274.044369,96.780906 274.120202,99.5347428 273.882946,102.217889 C273.49358,106.62296 272.201754,111.09072 269.325414,114.44343 C266.449517,117.79614 261.770918,119.809277 257.506962,118.677776 C256.039523,118.288754 254.667873,117.555168 253.171165,117.304415 C250.103245,116.790905 246.801618,118.633317 245.62066,121.517865 C245.025524,122.970365 245.006011,124.807442 246.084528,125.946501 C247.455291,127.39411 249.775965,127.073111 251.756942,126.873931 C256.30383,126.41644 260.967795,127.22294 265.107579,129.163163 C266.168357,129.660223 267.227805,130.257762 267.933364,131.194974 C269.010107,132.625689 269.054898,134.675283 268.29967,136.300287 C267.544442,137.924846 266.09075,139.147489 264.476523,139.918866 C260.822781,141.663466 256.196511,141.130838 253.032802,138.600634 C251.565806,137.427786 250.419882,135.888589 248.937809,134.735748 C247.386997,133.53 245.486732,132.781298 243.53192,132.605682 C243.106633,132.567446 242.67159,132.556776 242.25872,132.667481 C241.381538,132.902673 240.718996,133.670937 240.409898,134.526343 C239.452891,137.171698 241.571787,140.009564 244.032597,141.363363 C246.492963,142.716718 249.371078,143.21689 251.74009,144.725409 C252.542325,145.236696 253.324161,145.939605 253.484254,146.879039 C253.661641,147.917174 253.001759,148.949974 252.135664,149.545735 C251.269569,150.141495 250.223425,150.398028 249.212759,150.684349 C245.346152,151.781616 241.651168,153.483979 238.302532,155.710968 C236.862145,156.669076 235.598701,158.405229 236.275879,160 L227.271238,160" id="Fill-111" fill="#64B6A9"></path>
                <path d="M253.710797,146.972816 C253.551109,146.040096 252.771249,145.342211 251.971041,144.834578 C249.608017,143.33684 246.737176,142.840243 244.283028,141.496561 C241.828437,140.152437 239.714897,137.334854 240.669484,134.708405 C240.977801,133.859113 241.63867,133.095898 242.513634,132.862829 C242.925461,132.752915 243.359404,132.763509 243.783616,132.801471 C245.733488,132.975832 247.62895,133.719183 249.176285,134.916314 C250.65417,136.060916 251.797198,137.589112 253.260486,138.753577 C256.416199,141.265698 261.030777,141.794519 264.675284,140.062387 C266.285432,139.296524 267.73545,138.082619 268.488769,136.469671 C269.242088,134.856281 269.197411,132.821335 268.123389,131.400846 C267.419613,130.470333 266.362843,129.877065 265.304746,129.383557 C261.175425,127.457201 256.523248,126.656465 251.98785,127.110686 C250.011881,127.308442 247.697072,127.627147 246.329773,126.189884 C245.767106,125.598381 245.50966,124.817068 245.471618,124 C241.825783,129.848814 237.291713,135.218245 231.828711,139.62803 C231.715912,140.146257 231.561533,140.655656 231.351417,141.149163 C230.034546,144.235571 226.549727,146.40515 223.252905,145.749641 C223.048097,145.709472 222.848156,145.65606 222.650426,145.597351 C218.500757,147.721023 213.954301,149.338827 209,150.324517 C209.210558,150.485635 209.423327,150.642781 209.64052,150.793305 C212.59983,152.848115 216.092613,154.012139 219.61282,154.788597 C221.320727,155.165128 223.077735,155.468383 224.620646,156.289866 C226.163114,157.112231 227.453444,158.257716 227.564031,160 L236.545914,160 C235.870448,158.416627 237.130698,156.692882 238.567445,155.741622 C241.907617,153.53055 245.593263,151.840353 249.450098,150.750929 C250.45821,150.466654 251.50171,150.211955 252.365174,149.620452 C253.229522,149.02895 253.887736,148.003531 253.710797,146.972816" id="Fill-112" fill="#65A79B"></path>
                <path d="M269.296289,87.9871578 C265.5351,86.0326126 260.775131,87.156573 257.439306,89.8150474 C256.555925,98.6774905 253.795304,108.435138 249,117.444915 C250.462163,116.520416 252.263365,116.084445 253.992108,116.362312 C255.501683,116.605284 256.885124,117.316106 258.365178,117.693057 C262.665789,118.789446 267.384608,116.838778 270.285228,113.590106 C273.186296,110.341434 274.489226,106.012312 274.88194,101.743934 C275.121235,99.1440482 275.04475,96.4756653 274.201177,93.9951118 C273.358052,91.5145583 271.681194,89.226573 269.296289,87.9871578" id="Fill-113" fill="#65A79B"></path>
                <path d="M231.795317,160 L231,159.635254 C231.240912,159.111314 231.801001,157.476518 232.013931,156.721223 C232.751533,154.103274 233.366712,150.20128 234.018181,146.070554 C234.667464,141.952511 235.338608,137.69408 236.228366,133.948218 C238.549607,124.177488 242.908328,118.317937 251.271615,113.724499 C259.634466,109.1315 263.668327,104.056983 266.157463,95 L267,95.231793 C264.44047,104.548996 260.291619,109.768274 251.692666,114.491603 C243.57029,118.952087 239.337054,124.648072 237.079211,134.150709 C236.197323,137.863333 235.528802,142.105145 234.881706,146.207006 C234.226302,150.363972 233.607188,154.290895 232.855593,156.958701 C232.63217,157.750733 232.055904,159.431451 231.795317,160" id="Fill-114" fill="#D3E8E2"></path>
                <path d="M241.993952,123 C241.832157,120.467369 240.751512,118.824903 239.498992,116.923008 C238.747984,115.781783 237.971774,114.602238 237.28125,113.093671 C236.036794,110.375607 235.686996,107.198147 235.15625,102.389232 C234.883065,99.9076948 234.542339,96.8196473 234,93.1118762 L235,93 C235.544355,96.7214253 235.885585,99.8169605 236.159778,102.304664 C236.681452,107.038261 237.026714,110.16595 238.217238,112.766851 C238.881552,114.217278 239.639113,115.369074 240.372984,116.483872 C241.634073,118.399862 242.825605,120.209702 243,122.951109 L241.993952,123" id="Fill-115" fill="#D3E8E2"></path>
                <path d="M234.968129,138 L234.10632,137.930425 C234.58736,131.465325 229.011099,125.961181 225.145492,123.83958 C220.526989,121.304141 217.113896,117.442249 215,112.360076 L215.792657,112 C217.825732,116.887904 221.107868,120.602513 225.547006,123.03901 C227.828597,124.291821 230.194466,126.37005 231.877026,128.599628 C234.13398,131.590923 235.203246,134.841544 234.968129,138" id="Fill-116" fill="#D3E8E2"></path>
                <path d="M232.129564,156 C231.14211,152.161602 227.653615,151.545177 222.723094,151.801867 C216.288889,152.139061 211.792686,148.043052 209,139.284752 L209.856484,139 C212.504248,147.307022 216.698003,151.193722 222.677187,150.882749 C227.323263,150.642619 231.791111,151.066297 233,155.76631 L232.129564,156" id="Fill-117" fill="#D3E8E2"></path>
                <path d="M260.855664,135 C255.84129,135.000448 251.024852,132.228693 247.873274,130.415236 C247.435176,130.163666 247.029188,129.929584 246.658828,129.724651 C244.968896,128.788326 243.029125,128.638998 241.338753,129.315233 C239.673893,129.981602 238.429097,131.339005 237.83353,133.138561 L237,132.852013 C237.67958,130.797299 239.106477,129.244829 241.017217,128.480702 C242.95039,127.706709 245.159794,127.873526 247.079331,128.936757 C247.45277,129.143932 247.863157,129.379807 248.306094,129.634516 C252.192233,131.871293 258.698164,135.613006 264.707055,133.450221 L265,134.296411 C263.624126,134.791031 262.231978,135 260.855664,135" id="Fill-118" fill="#D3E8E2"></path>
                <path d="M234.782202,149 L234,148.620772 C235.652948,145.894548 238.938821,145.747712 242.417353,145.592121 C244.199778,145.512933 246.042269,145.430561 247.760178,145 L248,145.766415 C246.186874,146.220852 244.293215,146.305213 242.461846,146.387187 C239.099889,146.537207 236.196663,146.66733 234.782202,149" id="Fill-119" fill="#D3E8E2"></path>
                <polyline id="Fill-120" fill="#4E576F" points="247.467729 194 223.532711 194 218 159 253 159 247.467729 194"></polyline>
                <polyline id="Fill-121" fill="#7E8596" points="225 194 223.604549 194 218 159 220.905071 159 225 194"></polyline>
                <polyline id="Fill-122" fill="#7E8596" points="240.873198 159 238 194 246.791604 194 252 159 240.873198 159"></polyline>
                <polyline id="Fill-123" fill="#B0B4BE" points="250.712019 169 251 166 218 166 218.288425 169 250.712019 169"></polyline>
                <polyline id="Fill-124" fill="#B0B4BE" points="248.797623 173 249 172 218 172 218.202377 173 248.797623 173"></polyline>
            </g>
        </g>
    </g>
</svg>