
<svg width="1000px" height="1000px" viewBox="0 0 1000 1000" version="1.1" xmlns="http://www.w3.org/2000/svg" xmlns:xlink="http://www.w3.org/1999/xlink">
    <defs></defs>
    <g id="Page-1" stroke="none" stroke-width="1" fill="none" fill-rule="evenodd">
        <g id="github" fill-rule="nonzero" fill="#FFFFFF">
            <path d="M0,499.968 C0,361.956 48.825,244.125 146.476,146.475 C244.125,48.825 361.956,0 499.969,0 C637.98,0 755.811,48.825 853.462,146.475 C951.111,244.125 999.937,361.956 999.937,499.968 C999.937,637.98 951.112,755.811 853.462,853.461 C755.812,951.111 637.981,999.937 499.969,999.937 C361.956,999.937 244.125,951.112 146.476,853.461 C48.825,755.812 0,637.979 0,499.968 Z M54.684,499.968 C54.684,622.357 98.301,727.167 185.535,814.402 C272.769,901.635 377.58,945.253 499.969,945.253 C622.357,945.253 727.168,901.636 814.402,814.402 C901.636,727.168 945.253,622.357 945.253,499.968 C945.253,377.58 901.637,272.769 814.402,185.535 C727.168,98.301 622.356,54.684 499.969,54.684 C377.58,54.684 272.77,98.301 185.535,185.535 C98.301,272.769 54.684,377.58 54.684,499.968 Z M195.301,607.383 C192.697,604.779 192.697,602.175 195.301,599.571 C200.508,594.363 207.019,592.41 214.83,593.712 C222.642,595.014 227.199,596.316 228.501,597.618 C237.615,601.524 247.706,610.312 258.772,623.984 C269.838,637.655 278.627,647.094 285.138,652.302 C316.386,678.342 348.284,680.295 380.834,658.161 C383.438,649.047 387.67,641.235 393.528,634.724 C399.386,628.214 404.921,623.658 410.129,621.053 C415.338,618.449 424.452,614.543 437.472,609.335 C394.505,605.429 359.677,597.942 332.986,586.875 C306.295,575.808 285.137,561.812 269.513,544.886 C248.681,521.45 235.986,490.853 231.429,453.095 C226.871,415.337 229.801,380.834 240.218,349.586 C248.03,330.056 259.097,312.48 273.418,296.855 C263.002,264.305 264.955,227.198 279.277,185.534 C320.941,188.138 358.699,202.46 392.551,228.5 C457.651,211.574 525.355,210.923 595.662,226.547 C604.776,220.037 618.773,211.9 637.651,202.134 C656.53,192.369 680.292,186.835 708.936,185.533 C714.144,199.855 717.725,216.781 719.678,236.311 C721.631,255.841 720.655,274.069 716.749,290.995 C746.694,322.243 762.318,363.907 763.62,415.987 C763.62,457.651 756.46,492.154 742.138,519.496 C727.816,546.838 702.427,569.623 665.971,587.85 C641.233,599.569 608.683,606.729 568.321,609.333 C586.55,618.447 599.895,627.887 608.358,637.652 C616.822,647.417 622.355,662.715 624.96,683.547 L624.96,745.068 L626.912,804.634 C630.818,811.145 635.376,816.678 640.584,821.236 C645.792,825.793 650.349,829.048 654.255,831.001 C658.16,832.954 659.463,835.884 658.16,839.79 C656.858,843.696 651.65,845.649 642.537,845.649 C620.402,845.649 602.826,837.837 589.806,822.212 C585.9,815.702 583.947,807.891 583.947,798.776 L583.947,705.032 C583.947,694.616 581.343,687.129 576.135,682.572 C570.927,678.014 565.719,675.085 560.511,673.783 L560.511,796.822 C560.511,818.956 563.115,833.278 568.323,839.788 C573.531,846.298 576.786,852.809 578.089,859.318 C579.391,860.62 578.414,861.596 575.159,862.247 C571.905,862.897 566.371,861.922 558.558,859.318 C541.632,855.412 529.914,846.623 523.404,832.952 C516.894,819.281 513.639,804.633 513.639,789.009 L513.639,667.926 L488.25,667.926 L488.25,789.012 C488.25,804.636 484.994,819.61 478.484,833.931 C469.371,852.16 452.444,861.924 427.707,863.226 C423.801,861.924 421.848,860.622 421.848,859.321 C423.15,858.018 427.056,851.509 433.566,839.791 C434.868,837.187 436.496,831.979 438.449,824.167 C440.403,816.355 441.379,807.241 441.379,796.825 L441.379,673.785 C436.171,675.087 431.288,678.016 426.731,682.574 C422.174,687.132 419.895,694.618 419.895,705.034 L419.895,798.778 C419.895,807.891 417.942,815.704 414.036,822.214 C402.318,837.838 384.741,845.651 361.306,845.651 C352.192,845.651 346.984,843.698 345.682,839.792 C344.379,837.188 344.705,834.909 346.659,832.956 C348.613,831.003 351.542,828.724 355.448,826.12 C359.354,823.516 361.958,821.562 363.26,820.261 C368.468,816.355 372.373,811.147 374.978,804.637 C378.884,799.429 379.86,785.758 377.907,763.624 C375.954,741.49 375.628,727.168 376.93,720.658 C343.077,732.376 308.575,726.516 273.42,703.081 C263.004,692.665 252.588,677.691 242.172,658.162 C234.36,643.839 218.736,626.913 195.301,607.383 Z" id="Shape"></path>
        </g>
    </g>
</svg>