
<svg width="1109px" height="901px" viewBox="0 0 1109 901" version="1.1" xmlns="http://www.w3.org/2000/svg" xmlns:xlink="http://www.w3.org/1999/xlink">
    <!-- Generator: Sketch 47 (45396) - http://www.bohemiancoding.com/sketch -->
    <desc>Created with Sketch.</desc>
    <defs></defs>
    <g id="Page-1" stroke="none" stroke-width="1" fill="none" fill-rule="evenodd">
        <g id="twitter" fill-rule="nonzero" fill="#FFFFFF">
            <path d="M741,0.2 L741,0 L793,0 L812,3.8 C824.667,6.267 836.167,9.5 846.5,13.5 C856.834,17.5 866.834,22.167 876.5,27.5 C886.167,32.833 894.934,38.267 902.801,43.8 C910.601,49.267 917.601,55.067 923.801,61.2 C929.933,67.4 939.5,69 952.5,66 C965.5,63 979.5,58.833 994.5,53.5 C1009.5,48.167 1024.334,42.167 1039,35.5 C1053.667,28.833 1062.601,24.6 1065.801,22.8 C1068.934,20.934 1070.601,19.934 1070.801,19.8 L1071,19.5 L1072,19 L1073,18.5 L1074,18 L1075,17.5 L1075.2,17.2 L1075.5,17 L1075.801,16.8 L1076,16.5 L1077,16.2 L1078,16 L1077.801,17.5 L1077.5,19 L1077,20.5 L1076.5,22 L1076,23 L1075.5,24 L1075,25.5 C1074.667,26.5 1074.334,27.833 1074,29.5 C1073.667,31.167 1070.5,37.833 1064.5,49.5 C1058.5,61.167 1051,73 1042,85 C1033,97 1024.934,106.066 1017.801,112.2 C1010.601,118.4 1005.834,122.733 1003.5,125.2 C1001.167,127.733 998.334,130.066 995,132.2 L990,135.5 L989,136 L988,136.5 L987.801,136.8 L987.5,137 L987.2,137.2 L987,137.5 L986,138 L985,138.5 L984.801,138.8 L984.5,139 L984.2,139.2 L984,139.5 L983.801,139.8 L983.5,140 L983.2,140.2 L983,140.5 L988,140.5 L1016,134.5 C1034.667,130.5 1052.5,125.667 1069.5,120 L1096.5,111 L1099.5,110 L1101,109.5 L1102,109 L1103,108.5 L1104,108 L1105,107.5 L1107,107.2 L1109,107 L1109,109 L1108.5,109.2 L1108,109.5 L1107.801,109.8 L1107.5,110 L1107.2,110.2 L1107,110.5 L1106.801,110.8 L1106.5,111 L1106.2,111.2 L1106,111.5 L1105.801,111.8 L1105.5,112 L1105,113 L1104.5,114 L1104.2,114.2 C1104.067,114.4 1099.834,120.066 1091.5,131.2 C1083.167,142.4 1078.667,148.066 1078,148.2 C1077.334,148.4 1076.4,149.4 1075.2,151.2 C1074.067,153.066 1067,160.5 1054,173.5 C1041,186.5 1028.268,198.066 1015.801,208.2 C1003.268,218.4 996.934,230.933 996.801,245.8 C996.601,260.6 995.834,277.334 994.5,296 C993.167,314.667 990.667,334.833 987,356.5 C983.334,378.167 977.667,402.667 970,430 C962.334,457.333 953,484 942,510 C931,536 919.5,559.333 907.5,580 C895.5,600.667 884.5,618.167 874.5,632.5 C864.5,646.833 854.334,660.333 844,673 C833.667,685.667 820.601,699.934 804.801,715.8 C788.934,731.6 780.268,740.267 778.801,741.8 C777.268,743.267 770.735,748.734 759.2,758.2 C747.734,767.733 735.4,777.266 722.2,786.8 C709.067,796.267 697,804.167 686,810.5 C675,816.833 661.734,824.066 646.2,832.2 C630.734,840.4 614,848 596,855 C578,862 559,868.5 539,874.5 C519,880.5 499.667,885.167 481,888.5 C462.334,891.833 441.167,894.667 417.5,897 L382,900.5 L382,901 L317,901 L317,900.5 L308.5,900 C302.834,899.667 298.167,899.333 294.5,899 C290.834,898.667 277,896.833 253,893.5 C229,890.167 210.167,886.833 196.5,883.5 C182.834,880.167 162.5,873.833 135.5,864.5 C108.5,855.167 85.4,845.733 66.2,836.2 C47.067,826.733 35.067,820.733 30.2,818.2 C25.4,815.733 20,812.667 14,809 L5,803.5 L4.801,803.2 L4.5,803 L4.2,802.8 L4,802.5 L3,802 L2,801.5 L1.801,801.2 L1.5,801 L1.2,800.8 L1,800.5 L0.801,800.2 L0.5,800 L0,800 L0,798 L1,798.2 L2,798.5 L6.5,799 C9.5,799.333 17.667,799.833 31,800.5 C44.334,801.167 58.5,801.167 73.5,800.5 C88.5,799.833 103.834,798.333 119.5,796 C135.167,793.667 153.667,789.667 175,784 C196.334,778.333 215.934,771.6 233.801,763.8 C251.601,755.934 264.267,750.067 271.801,746.2 C279.267,742.4 290.667,735.333 306,725 L329,709.5 L329.2,709.2 L329.5,709 L329.801,708.8 L330,708.5 L330.2,708.2 L330.5,708 L330.801,707.8 L331,707.5 L332,707.2 L333,707 L333.2,706 L333.5,705 L333.801,704.8 L334,704.5 L326,704 C320.667,703.667 315.5,703.333 310.5,703 C305.5,702.667 297.667,701.167 287,698.5 C276.334,695.833 264.834,691.833 252.5,686.5 C240.167,681.167 228.167,674.833 216.5,667.5 C204.834,660.167 196.4,654.066 191.2,649.2 C186.067,644.399 179.4,637.6 171.2,628.8 C163.067,619.934 156,610.833 150,601.5 C144,592.167 138.267,581.399 132.801,569.2 L124.5,551 L124,549.5 L123.5,548 L123.2,547 L123,546 L124.5,546.2 L126,546.5 L137,548 C144.334,549 155.834,549.333 171.5,549 C187.167,548.667 198,548 204,547 C210,546 213.667,545.333 215,545 L217,544.5 L219.5,544 L222,543.5 L222.2,543.2 L222.5,543 L222.801,542.8 L223,542.5 L221,542 L219,541.5 L217,541 L215,540.5 L213,540 C211.667,539.667 209.334,539 206,538 C202.667,537 193.667,533.333 179,527 C164.334,520.667 152.667,514.5 144,508.5 C135.311515,502.482608 127.027067,495.901816 119.2,488.8 C111.4,481.6 102.834,472.333 93.5,461 C84.167,449.667 75.834,436.5 68.5,421.5 C61.167,406.5 55.667,392.167 52,378.5 C48.3477458,364.913393 45.9381636,351.0229 44.801,337 L43,316 L44,316.2 L45,316.5 L46,317 L47,317.5 L48,318 L49,318.5 L64.5,325.5 C74.834,330.167 87.667,334.167 103,337.5 C118.334,340.833 127.5,342.667 130.5,343 L135,343.5 L144,343.5 L143.801,343.2 L143.5,343 L143.2,342.8 L143,342.5 L142.801,342.2 L142.5,342 L142.2,341.8 L142,341.5 L141,341 L140,340.5 L139.801,340.2 L139.5,340 L139.2,339.8 L139,339.5 L138,339 L137,338.5 L136.801,338.2 C136.601,338.066 133.734,335.933 128.2,331.8 C122.733,327.6 117,322.167 111,315.5 C105,308.833 99,301.833 93,294.5 C86.988953,287.150198 81.6350489,279.286652 77,271 C72.334,262.667 67.4,252.066 62.2,239.2 C57.067,226.4 53.167,213.5 50.5,200.5 C47.834,187.5 46.334,174.667 46,162 C45.667,149.333 46,138.5 47,129.5 C48,120.5 50,110.333 53,99 C56,87.667 60.334,75.667 66,63 L74.5,44 L75,42.5 L75.5,41 L75.801,40.8 L76,40.5 L76.2,40.2 L76.5,40 L76.801,40.2 L77,40.5 L77.2,40.8 L77.5,41 L77.801,41.2 L78,41.5 L78.2,41.8 L78.5,42 L79,43 L79.5,44 L79.801,44.2 L80,44.5 L93.5,59.5 C102.5,69.5 113.167,80.667 125.5,93 C137.834,105.333 144.667,111.733 146,112.2 C147.334,112.733 149,114.266 151,116.8 C153,119.267 159.667,125.167 171,134.5 C182.334,143.833 197.167,154.667 215.5,167 C233.834,179.333 254.167,191.5 276.5,203.5 C298.834,215.5 322.834,226.333 348.5,236 C374.167,245.667 392.167,252 402.5,255 C412.834,258 430.5,261.833 455.5,266.5 C480.5,271.167 499.334,274.167 512,275.5 C524.667,276.833 533.334,277.6 538,277.8 L545,278 L544.801,276.5 L544.5,275 L542.5,262.5 C541.167,254.167 540.5,242.5 540.5,227.5 C540.5,212.5 541.667,198.667 544,186 C546.334,173.333 549.834,160.5 554.5,147.5 C559.167,134.5 563.734,124.066 568.2,116.2 C572.734,108.4 578.667,99.5 586,89.5 C593.334,79.5 602.834,69.167 614.5,58.5 C626.167,47.833 639.5,38.333 654.5,30 C669.5,21.667 683.334,15.333 696,11 C708.667,6.667 719.334,3.833 728,2.5 C736.667,1.167 741,0.4 741,0.2 Z" id="Shape"></path>
            <path d="M0,399 L0,0 L741,0 L741,0.2 C741,0.4 736.667,1.166 728,2.5 C719.334,3.833 708.667,6.667 696,11 C683.334,15.333 669.5,21.667 654.5,30 C639.5,38.333 626.167,47.833 614.5,58.5 C602.834,69.167 593.334,79.5 586,89.5 C578.667,99.5 572.734,108.4 568.2,116.2 C563.734,124.066 559.167,134.5 554.5,147.5 C549.834,160.5 546.334,173.333 544,186 C541.667,198.667 540.5,212.5 540.5,227.5 C540.5,242.5 541.167,254.167 542.5,262.5 L544.5,275 L544.801,276.5 L545,278 L538,277.8 C533.334,277.6 524.667,276.834 512,275.5 C499.334,274.167 480.5,271.167 455.5,266.5 C430.5,261.833 412.834,258 402.5,255 C392.167,252 374.167,245.667 348.5,236 C322.834,226.333 298.834,215.5 276.5,203.5 C254.167,191.5 233.834,179.333 215.5,167 C197.167,154.667 182.334,143.833 171,134.5 C159.667,125.167 153,119.267 151,116.8 C149,114.267 147.334,112.734 146,112.2 C144.667,111.733 137.834,105.333 125.5,93 C113.167,80.667 102.5,69.5 93.5,59.5 L80,44.5 L79.801,44.2 L79.5,44 L79,43 L78.5,42 L78.2,41.8 L78,41.5 L77.801,41.2 L77.5,41 L77.2,40.8 L77,40.5 L76.801,40.2 L76.5,40 L76.2,40.2 L76,40.5 L75.801,40.8 L75.5,41 L75,42.5 L74.5,44 L66,63 C60.334,75.667 56,87.667 53,99 C50,110.333 48,120.5 47,129.5 C46,138.5 45.667,149.333 46,162 C46.334,174.667 47.834,187.5 50.5,200.5 C53.167,213.5 57.067,226.4 62.2,239.2 C67.4,252.066 72.334,262.666 77,271 C81.667,279.333 87,287.167 93,294.5 C99,301.833 105,308.833 111,315.5 C117,322.167 122.733,327.6 128.2,331.8 C133.733,335.934 136.6,338.067 136.801,338.2 L137,338.5 L138,339 L139,339.5 L139.2,339.8 L139.5,340 L139.801,340.2 L140,340.5 L141,341 L142,341.5 L142.2,341.8 L142.5,342 L142.801,342.2 L143,342.5 L143.2,342.8 L143.5,343 L143.801,343.2 L144,343.5 L135,343.5 L130.5,343 C127.5,342.667 118.334,340.833 103,337.5 C87.667,334.167 74.834,330.167 64.5,325.5 L49,318.5 L48,318 L47,317.5 L46,317 L45,316.5 L44,316.2 L43,316 L44.801,337 C45.934,351 48.334,364.833 52,378.5 C55.667,392.167 61.167,406.5 68.5,421.5 C75.834,436.5 84.167,449.667 93.5,461 C102.834,472.333 111.4,481.6 119.2,488.8 C127.027067,495.901816 135.311515,502.482608 144,508.5 C152.667,514.5 164.334,520.667 179,527 C193.667,533.333 202.667,537 206,538 C209.334,539 211.667,539.667 213,540 L215,540.5 L217,541 L219,541.5 L221,542 L223,542.5 L222.801,542.8 L222.5,543 L222.2,543.2 L222,543.5 L219.5,544 L217,544.5 L215,545 C213.667,545.333 210,546 204,547 C198,548 187.167,548.667 171.5,549 C155.834,549.333 144.334,549 137,548 L126,546.5 L124.5,546.2 L123,546 L123.2,547 L123.5,548 L124,549.5 L124.5,551 L132.801,569.2 C138.266,581.399 144,592.167 150,601.5 C156,610.833 163.067,619.934 171.2,628.8 C179.4,637.601 186.067,644.4 191.2,649.2 C196.4,654.066 204.834,660.167 216.5,667.5 C228.167,674.833 240.167,681.167 252.5,686.5 C264.834,691.833 276.334,695.833 287,698.5 C297.667,701.167 305.5,702.667 310.5,703 C315.5,703.333 320.667,703.667 326,704 L334,704.5 L333.801,704.8 L333.5,705 L333.2,706 L333,707 L332,707.2 L331,707.5 L330.801,707.8 L330.5,708 L330.2,708.2 L330,708.5 L329.801,708.8 L329.5,709 L329.2,709.2 L329,709.5 L306,725 C290.667,735.333 279.267,742.4 271.801,746.2 C264.267,750.066 251.601,755.933 233.801,763.8 C215.934,771.6 196.334,778.333 175,784 C153.667,789.667 135.167,793.667 119.5,796 C103.834,798.333 88.5,799.833 73.5,800.5 C58.5,801.167 44.334,801.167 31,800.5 C17.667,799.833 9.5,799.333 6.5,799 L2,798.5 L1,798.2 L0,798 L0,399 Z M1107.801,109.8 L1108,109.5 L1108.5,109.2 L1109,109 L1109,901 L382,901 L382,900.5 L417.5,897 C441.167,894.667 462.334,891.833 481,888.5 C499.667,885.167 519,880.5 539,874.5 C559,868.5 578,862 596,855 C614,848 630.734,840.4 646.2,832.2 C661.734,824.066 675,816.833 686,810.5 C697,804.167 709.067,796.267 722.2,786.8 C735.4,777.267 747.734,767.734 759.2,758.2 C770.734,748.733 777.267,743.266 778.801,741.8 C780.268,740.267 788.934,731.6 804.801,715.8 C820.601,699.934 833.667,685.667 844,673 C854.334,660.333 864.5,646.833 874.5,632.5 C884.5,618.167 895.5,600.667 907.5,580 C919.5,559.333 931,536 942,510 C953,484 962.334,457.333 970,430 C977.667,402.667 983.334,378.167 987,356.5 C990.667,334.833 993.167,314.667 994.5,296 C995.834,277.333 996.601,260.6 996.801,245.8 C996.934,230.934 1003.268,218.4 1015.801,208.2 C1028.268,198.066 1041,186.5 1054,173.5 C1067,160.5 1074.067,153.066 1075.2,151.2 C1076.4,149.4 1077.334,148.4 1078,148.2 C1078.667,148.066 1083.167,142.4 1091.5,131.2 C1099.834,120.066 1104.067,114.4 1104.2,114.2 L1104.5,114 L1105,113 L1105.5,112 L1105.801,111.8 L1106,111.5 L1106.2,111.2 L1106.5,111 L1106.801,110.8 L1107,110.5 L1107.2,110.2 L1107.5,110 L1107.801,109.8 Z M812,3.8 L793,0 L1109,0 L1109,107 L1107,107.2 L1105,107.5 L1104,108 L1103,108.5 L1102,109 L1101,109.5 L1099.5,110 L1096.5,111 L1069.5,120 C1052.5,125.667 1034.667,130.5 1016,134.5 L988,140.5 L983,140.5 L983.2,140.2 L983.5,140 L983.801,139.8 L984,139.5 L984.2,139.2 L984.5,139 L984.801,138.8 L985,138.5 L986,138 L987,137.5 L987.2,137.2 L987.5,137 L987.801,136.8 L988,136.5 L989,136 L990,135.5 L995,132.2 C998.334,130.066 1001.167,127.733 1003.5,125.2 C1005.834,122.733 1010.601,118.4 1017.801,112.2 C1024.933,106.066 1033,97 1042,85 C1051,73 1058.5,61.167 1064.5,49.5 C1070.5,37.833 1073.667,31.167 1074,29.5 C1074.334,27.833 1074.667,26.5 1075,25.5 L1075.5,24 L1076,23 L1076.5,22 L1077,20.5 L1077.5,19 L1077.801,17.5 L1078,16 L1077,16.2 L1076,16.5 L1075.801,16.8 L1075.5,17 L1075.2,17.2 L1075,17.5 L1074,18 L1073,18.5 L1072,19 L1071,19.5 L1070.801,19.8 C1070.601,19.934 1068.934,20.934 1065.801,22.8 C1062.601,24.6 1053.667,28.834 1039,35.5 C1024.334,42.167 1009.5,48.167 994.5,53.5 C979.5,58.833 965.5,63 952.5,66 C939.5,69 929.934,67.4 923.801,61.2 C917.601,55.066 910.601,49.266 902.801,43.8 C894.934,38.267 886.167,32.834 876.5,27.5 C866.826541,22.1633528 856.80374,17.4860454 846.5,13.5 C836.167,9.5 824.667,6.267 812,3.8 L812,3.8 Z M0,850.5 L0,800 L0.5,800 L0.801,800.2 L1,800.5 L1.2,800.8 L1.5,801 L1.801,801.2 L2,801.5 L3,802 L4,802.5 L4.2,802.8 L4.5,803 L4.801,803.2 L5,803.5 L14,809 C20,812.667 25.4,815.733 30.2,818.2 C35.067,820.733 47.067,826.733 66.2,836.2 C85.4,845.733 108.5,855.167 135.5,864.5 C162.5,873.833 182.834,880.167 196.5,883.5 C210.167,886.833 229,890.167 253,893.5 C277,896.833 290.834,898.667 294.5,899 C298.167,899.333 302.834,899.667 308.5,900 L317,900.5 L317,901 L0,901 L0,850.5 Z" id="Shape"></path>
        </g>
    </g>
</svg>